<svg xmlns="http://www.w3.org/2000/svg" xmlns:xlink="http://www.w3.org/1999/xlink" viewBox="0 0 103 101"><g transform="translate(0 0.003)" id="ss11585876880_1"><path d="M 16.222 47.835 C 25.676 47.835 35.142 47.82 44.597 47.835 C 50.521 47.844 56.456 47.813 62.38 47.835 C 71.782 47.871 79.877 46.719 88.557 50.628 L 90.161 54.108 C 89.903 54.193 88.931 54.814 88.856 54.814 L 81.961 54.814 L 81.961 58.404 L 89.854 58.404 C 90.084 58.404 93.627 56.475 93.861 56.219 C 94.564 55.447 94.433 54.55 94.152 53.618 C 96.284 54.823 98.55 55.918 100.608 57.245 C 101.302 57.693 103.235 58.701 103.095 59.698 C 101.896 65.698 86.182 66.861 78.673 67.185 C 69.991 67.56 61.415 66.226 52.788 65.782 C 54.817 63.975 56.834 62.1 58.783 60.202 L 39.34 58.395 C 38.283 60.14 36.964 61.722 35.803 63.389 C 13.957 63.178 0.531 53.909 0.017 53.118 C -0.301 52.628 3.828 51.411 3.828 51.411 C 3.548 50.237 3.423 49.027 3.234 47.835 L 16.224 47.835 Z M 25.214 51.425 L 21.616 51.425 L 21.616 55.014 L 24.913 55.014 C 24.935 55.014 25.214 54.737 25.214 54.714 Z M 32.208 51.425 L 28.611 51.425 L 28.611 54.714 C 28.611 54.737 28.889 55.014 28.911 55.014 L 32.208 55.014 Z M 39.4 51.425 L 35.803 51.425 L 35.803 55.014 L 39.1 55.014 C 39.122 55.014 39.4 54.737 39.4 54.714 Z M 46.394 51.425 L 42.997 51.425 L 42.997 54.814 L 46.394 54.814 Z M 53.589 51.425 L 49.991 51.425 L 49.991 54.814 L 53.589 54.814 Z M 60.583 51.425 L 57.186 51.425 L 57.186 54.814 L 60.583 54.814 Z M 67.775 51.425 L 64.178 51.425 L 64.178 54.714 C 64.178 54.737 64.456 55.014 64.478 55.014 L 67.775 55.014 Z" fill="rgb(240,241,241)"></path><path d="M 62.38 47.835 C 56.456 47.813 50.521 47.844 44.597 47.835 L 34.205 23.908 L 41.3 23.908 C 48.394 31.822 55.473 39.764 62.38 47.835 Z" fill="rgb(236,30,37)"></path><path d="M 23.216 6.161 C 23.854 6.001 24.253 5.533 24.962 5.413 C 31.102 4.368 32.528 12.552 26.864 14.09 L 5.946 14.121 C 2.029 13.611 0.522 8.374 3.844 6.077 C 5.446 4.969 6.531 5.733 7.695 5.333 C 7.968 5.24 8.204 4.641 8.527 4.37 C 9.721 3.366 11.347 3.298 12.711 3.968 C 15.003 -2.427 24.041 -0.656 23.214 6.163 Z M 94.355 16.73 C 95.02 16.543 95.601 16.092 96.299 15.982 C 102.039 15.078 103.68 23.287 98.003 24.659 L 76.687 24.687 C 71.891 23.8 72.02 16.483 76.889 15.955 C 77.53 15.886 78.874 16.192 78.956 16.128 C 79 16.095 79.121 15.484 79.465 15.131 C 80.104 14.481 81.354 14.057 82.26 14.13 C 82.745 14.168 83.539 14.614 83.837 14.521 C 84.115 14.437 84.415 13.336 84.673 12.952 C 87.859 8.246 95.193 11.098 94.353 16.725 Z" fill="rgb(229,229,229)"></path><path d="M 16.222 47.835 L 3.828 51.411 C 2.883 45.493 1.156 36.013 0.235 30.09 L 7.33 30.09 Z" fill="rgb(236,29,37)"></path><path d="M 88.557 50.626 C 90.793 51.631 92.103 52.457 94.152 53.616 C 94.435 54.548 94.564 55.443 93.861 56.217 C 93.63 56.473 90.084 58.402 89.854 58.402 L 81.961 58.402 L 81.961 54.812 L 85.169 53.995 C 88.262 52.987 88.624 50.599 88.555 50.626 Z" fill="rgb(5,188,214)"></path><path d="M 35.805 63.387 C 36.966 61.718 38.285 60.137 39.342 58.393 L 58.785 60.2 C 56.839 62.097 54.821 63.973 52.79 65.78 C 44.328 73.318 35.674 80.653 27.322 88.322 C 27.027 88.582 26.693 88.528 26.339 88.497 C 25.222 88.404 21.207 87.354 20.092 86.937 C 19.879 86.857 19.752 87.037 19.819 86.619 C 25.371 79.032 30.439 71.101 35.803 63.387 Z" fill="rgb(236,29,37)"></path><path d="M 58.785 93.097 C 65.123 89.214 69.461 98.935 62.233 101.026 L 41.516 101.057 C 37.049 100.355 36.061 94.231 40.292 92.493 C 41.6 91.956 42.712 92.462 43.262 92.278 C 43.593 92.164 44.109 90.946 45.353 90.566 C 46.953 90.076 47.664 90.943 48.298 90.881 C 48.456 90.866 49.268 88.855 49.989 88.213 C 53.733 84.883 59.68 88.14 58.785 93.101 Z" fill="rgb(229,229,229)"></path><path d="M 25.214 51.425 L 25.214 54.714 C 25.214 54.737 24.935 55.014 24.913 55.014 L 21.616 55.014 L 21.616 51.425 Z M 32.208 51.425 L 32.208 55.014 L 28.911 55.014 C 28.889 55.014 28.611 54.737 28.611 54.714 L 28.611 51.425 Z M 39.4 51.425 L 39.4 54.714 C 39.4 54.737 39.122 55.014 39.1 55.014 L 35.803 55.014 L 35.803 51.425 Z M 67.775 51.425 L 67.775 55.014 L 64.478 55.014 C 64.456 55.014 64.178 54.737 64.178 54.714 L 64.178 51.425 Z M 49.991 51.425 L 53.589 51.425 L 53.589 54.814 L 49.991 54.814 Z M 42.997 51.425 L 46.394 51.425 L 46.394 54.814 L 42.997 54.814 Z M 57.186 51.425 L 60.583 51.425 L 60.583 54.814 L 57.186 54.814 Z" fill="rgb(5,188,214)"></path></g></svg>