<svg xmlns="http://www.w3.org/2000/svg" xmlns:xlink="http://www.w3.org/1999/xlink" viewBox="0 0 103 35"><g id="ss12451569612_1"><path d="M 0.456 0 C 2.032 0 3.71 0.085 4.597 0.085 C 5.314 0.085 7.189 0 8.263 0 C 8.705 0 8.915 0.054 8.915 0.263 C 8.915 0.472 8.742 0.529 8.44 0.529 C 8.113 0.529 8.164 0.557 7.807 0.62 C 7.005 0.766 6.765 1.264 6.708 2.293 C 6.648 3.237 6.648 4.061 6.648 8.536 L 6.648 12.659 C 6.648 16.927 7.507 18.721 8.966 19.903 C 10.309 20.988 11.448 21.11 12.459 21.11 C 13.775 21.11 15.197 20.685 16.388 19.511 C 18.028 17.89 18.116 15.243 18.116 12.208 L 18.116 8.529 C 18.116 4.054 18.116 3.23 18.056 2.293 C 17.996 1.287 17.759 0.813 16.773 0.611 C 16.535 0.554 16.21 0.531 15.888 0.531 C 15.565 0.531 15.379 0.474 15.379 0.265 C 15.379 0.056 15.586 0.002 16.005 0.002 C 17.526 0.002 19.399 0.087 19.429 0.087 C 19.784 0.087 21.665 0.002 22.824 0.002 C 23.241 0.002 23.45 0.056 23.45 0.265 C 23.45 0.474 23.273 0.531 22.913 0.531 C 22.584 0.531 22.591 0.554 22.236 0.608 C 21.43 0.754 21.194 1.254 21.132 2.286 C 21.072 3.23 21.072 4.054 21.072 8.529 L 21.072 11.682 C 21.072 14.947 20.743 18.418 18.243 20.54 C 16.132 22.337 13.802 22.67 11.869 22.67 C 10.288 22.67 6.385 22.628 4.21 20.683 C 2.689 19.325 1.562 17.152 1.562 12.887 L 1.562 8.586 C 1.562 4.113 1.592 3.291 1.555 2.351 C 1.521 1.517 1.638 1.034 1.323 0.709 C 1.265 0.646 1.118 0.566 0.883 0.531 C 0.664 0.496 0 0.432 0 0.233 C 0 0.136 0.078 0.002 0.461 0.002 M 28.303 19.518 C 25.444 17.03 24.683 13.798 24.683 11 C 24.683 9.032 25.294 5.623 28.098 3.082 C 30.202 1.174 32.978 0.021 37.331 0.021 C 39.142 0.021 40.225 0.136 41.569 0.312 C 42.677 0.453 43.615 0.712 44.488 0.799 C 44.813 0.827 44.928 0.97 44.928 1.144 C 44.928 1.374 44.841 1.727 44.783 2.732 C 44.726 3.686 44.753 5.273 44.696 5.854 C 44.666 6.286 44.608 6.516 44.341 6.516 C 44.11 6.516 44.05 6.286 44.05 5.884 C 44.018 4.985 43.638 3.979 42.91 3.225 C 41.944 2.215 40.472 1.567 37.783 1.567 C 35.244 1.567 34.207 2.196 32.916 3.352 C 30.785 5.292 30.227 8.038 30.227 10.834 C 30.227 17.711 35.515 21.115 39.435 21.115 C 42.034 21.115 42.232 21.061 43.405 19.729 C 43.898 19.182 44.228 17.986 44.341 17.46 C 44.431 17.004 44.488 16.889 44.723 16.889 C 44.926 16.889 44.981 17.091 44.981 17.321 C 44.981 17.671 44.636 20.183 44.341 21.16 C 44.196 21.655 44.078 21.799 43.583 21.998 C 42.41 22.463 40.193 22.665 38.322 22.665 C 34.32 22.665 30.962 21.799 28.301 19.515 M 77.946 0.625 C 78.169 0.073 78.614 0.061 78.688 0.061 C 78.916 0.061 79.211 0.132 79.524 0.543 L 87.536 16.913 L 95.35 0.785 C 95.585 0.322 95.972 0.042 96.235 0.049 C 96.553 0.061 96.88 0.376 96.956 0.935 L 99.627 18.865 C 99.894 20.692 100.184 21.533 101.071 21.796 C 101.917 22.059 102.071 22.144 102.459 22.144 C 102.719 22.144 102.926 22.179 102.926 22.348 C 102.926 22.581 102.571 22.67 102.161 22.67 C 101.429 22.67 97.375 22.583 96.2 22.494 C 95.527 22.435 95.35 22.351 95.35 22.182 C 95.35 22.034 95.47 21.944 95.677 21.862 C 95.85 21.799 95.937 21.423 95.82 20.61 L 94.06 7.841 L 93.944 7.841 L 87.541 21.012 C 86.868 22.379 86.591 22.59 86.154 22.59 C 85.739 22.59 85.474 22.088 85.006 21.214 C 84.301 19.882 81.981 15.438 81.635 14.627 C 81.363 14.021 79.605 10.357 78.577 8.184 L 78.888 8.158 L 77.358 19.708 C 77.294 20.232 77.268 20.608 77.268 21.07 C 77.268 21.618 77.651 21.888 78.149 22.001 C 78.679 22.118 79.091 22.144 79.384 22.144 C 79.614 22.144 79.822 22.205 79.822 22.348 C 79.822 22.607 79.557 22.67 79.121 22.67 C 77.886 22.67 76.566 22.583 76.033 22.583 C 75.501 22.583 74.068 22.67 73.13 22.67 C 72.835 22.67 72.6 22.607 72.6 22.348 C 72.6 22.205 72.777 22.144 73.068 22.144 C 73.305 22.144 73.51 22.144 73.95 22.059 C 74.771 21.888 74.89 20.535 75.04 19.546 L 77.941 0.627 L 77.946 0.627 Z M 55.281 16.091 C 55.032 16.149 54.454 16.363 54.055 16.99 L 52.931 19.504 C 52.641 20.23 52.461 20.901 52.461 21.247 C 52.461 21.77 52.724 22.144 53.629 22.144 L 54.072 22.144 C 54.429 22.144 54.514 22.207 54.514 22.379 C 54.514 22.616 54.334 22.668 54.014 22.668 C 53.071 22.668 51.811 22.579 50.903 22.579 C 50.578 22.579 48.965 22.668 47.442 22.668 C 47.06 22.668 46.882 22.614 46.882 22.379 C 46.882 22.207 47 22.144 47.235 22.144 C 47.54 22.141 47.844 22.123 48.147 22.09 C 49.495 21.916 49.912 20.591 50.498 19.142 L 57.864 0.916 C 58.219 0.078 58.871 0.054 58.989 0.063 C 59.249 0.099 59.516 0.221 59.911 1.048 C 60.666 2.624 65.309 14.489 67.194 18.898 C 68.312 21.505 69.162 21.914 69.777 22.062 C 70.22 22.146 70.305 22.146 70.655 22.146 C 70.893 22.146 71.038 22.179 71.038 22.381 C 71.038 22.618 70.773 22.67 69.685 22.67 C 68.598 22.67 66.489 22.67 64.141 22.616 C 63.611 22.581 63.261 22.581 63.261 22.379 C 63.261 22.207 63.381 22.144 63.671 22.118 C 63.878 22.059 64.084 21.799 63.934 21.453 L 61.966 17 C 61.913 16.854 61.245 16.194 60.791 16.105 C 60.791 16.105 55.459 16.048 55.281 16.093 M 55.261 14.117 C 56.291 14.197 59.046 14.214 60.447 14.101 C 60.666 14.087 60.883 13.765 60.754 13.471 L 58.256 6.302 C 58.201 6.187 58.182 6.042 58.09 6.042 C 57.998 6.042 57.947 6.185 57.917 6.302 L 55.037 13.481 C 54.949 13.803 54.954 14.099 55.261 14.115 M 2.074 27.013 C 2.097 26.844 2.194 26.748 2.277 26.748 C 2.383 26.748 2.454 26.797 2.597 27.074 L 5.399 32.811 L 8.199 27.004 C 8.281 26.835 8.376 26.75 8.47 26.75 C 8.553 26.75 8.673 26.858 8.708 27.077 L 9.657 33.429 C 9.752 34.07 9.846 34.347 10.166 34.446 C 10.464 34.53 10.63 34.542 10.759 34.542 C 10.853 34.542 10.924 34.58 10.924 34.638 C 10.924 34.723 10.805 34.76 10.65 34.76 C 10.39 34.76 8.906 34.711 8.491 34.688 C 8.242 34.676 8.182 34.627 8.182 34.565 C 8.182 34.516 8.231 34.481 8.3 34.457 C 8.36 34.434 8.383 34.312 8.348 34.023 L 7.768 29.569 L 7.731 29.569 L 5.489 34.166 C 5.251 34.65 5.191 34.746 5.074 34.746 C 4.943 34.746 4.825 34.54 4.659 34.225 C 4.41 33.755 3.581 32.181 3.461 31.89 C 3.378 31.697 2.76 30.403 2.417 29.689 L 2.38 29.689 L 1.883 33.706 C 1.86 33.889 1.846 34.02 1.846 34.19 C 1.846 34.382 1.989 34.455 2.166 34.493 C 2.343 34.53 2.438 34.542 2.535 34.542 C 2.631 34.542 2.701 34.591 2.701 34.638 C 2.701 34.735 2.604 34.76 2.452 34.76 C 2.012 34.76 1.537 34.723 1.348 34.723 C 1.145 34.723 0.647 34.76 0.316 34.76 C 0.21 34.76 0.127 34.737 0.127 34.638 C 0.127 34.589 0.187 34.542 0.293 34.542 C 0.376 34.542 0.447 34.542 0.613 34.518 C 0.899 34.481 0.993 34.072 1.039 33.732 L 2.072 27.018 L 2.072 27.013 Z M 12.037 29.952 C 12.037 28.392 12.049 28.101 12.026 27.774 C 12.003 27.41 11.906 27.314 11.574 27.218 C 11.491 27.194 11.314 27.18 11.171 27.18 C 11.051 27.18 10.994 27.143 10.994 27.07 C 10.994 26.997 11.065 26.973 11.219 26.973 C 11.777 26.973 12.478 26.997 12.786 26.997 C 13.047 26.997 13.747 26.973 14.127 26.973 C 14.282 26.973 14.353 26.997 14.353 27.07 C 14.353 27.143 14.293 27.18 14.187 27.18 C 14.067 27.18 14.008 27.192 13.879 27.218 C 13.607 27.267 13.524 27.41 13.498 27.774 C 13.475 28.101 13.475 28.392 13.475 29.952 L 13.475 31.392 C 13.475 32.893 13.761 33.473 14.27 33.884 C 14.733 34.258 15.231 34.295 15.588 34.295 C 16.04 34.295 16.572 34.161 16.989 33.753 C 17.57 33.196 17.595 32.301 17.595 31.249 L 17.595 29.954 C 17.595 28.395 17.584 28.103 17.572 27.777 C 17.549 27.424 17.464 27.316 17.132 27.22 C 17.049 27.197 16.872 27.183 16.752 27.183 C 16.632 27.183 16.574 27.145 16.574 27.072 C 16.574 26.999 16.646 26.976 16.789 26.976 C 17.323 26.976 18.024 26.999 18.035 26.999 C 18.155 26.999 18.853 26.976 19.257 26.976 C 19.399 26.976 19.471 26.999 19.471 27.072 C 19.471 27.145 19.411 27.183 19.293 27.183 C 19.176 27.183 19.114 27.194 18.985 27.22 C 18.701 27.269 18.63 27.413 18.605 27.777 C 18.593 28.103 18.581 28.395 18.581 29.954 L 18.581 31.056 C 18.581 32.205 18.462 33.414 17.584 34.152 C 16.849 34.782 16.054 34.89 15.376 34.89 C 14.83 34.89 13.749 34.866 12.991 34.187 C 12.459 33.715 12.042 32.954 12.042 31.465 L 12.042 29.952 Z M 21.713 27.013 C 21.736 26.844 21.833 26.748 21.916 26.748 C 22.022 26.748 22.093 26.797 22.236 27.074 L 25.038 32.811 L 27.838 27.004 C 27.921 26.835 28.015 26.75 28.11 26.75 C 28.193 26.75 28.312 26.858 28.347 27.077 L 29.296 33.429 C 29.391 34.07 29.485 34.347 29.805 34.446 C 30.103 34.53 30.269 34.542 30.398 34.542 C 30.492 34.542 30.564 34.58 30.564 34.638 C 30.564 34.723 30.444 34.76 30.289 34.76 C 30.029 34.76 28.545 34.711 28.13 34.688 C 27.881 34.676 27.822 34.627 27.822 34.565 C 27.822 34.516 27.87 34.481 27.939 34.457 C 27.999 34.434 28.022 34.312 27.987 34.023 L 27.407 29.569 L 27.37 29.569 L 25.128 34.166 C 24.891 34.65 24.831 34.746 24.713 34.746 C 24.582 34.746 24.464 34.54 24.298 34.225 C 24.049 33.755 23.22 32.181 23.1 31.89 C 23.017 31.697 22.4 30.403 22.056 29.689 L 22.019 29.689 L 21.522 33.706 C 21.499 33.889 21.485 34.02 21.485 34.19 C 21.485 34.382 21.628 34.455 21.805 34.493 C 21.983 34.53 22.077 34.542 22.174 34.542 C 22.271 34.542 22.34 34.591 22.34 34.638 C 22.34 34.735 22.243 34.76 22.091 34.76 C 21.651 34.76 21.176 34.723 20.987 34.723 C 20.784 34.723 20.287 34.76 19.955 34.76 C 19.849 34.76 19.766 34.737 19.766 34.638 C 19.766 34.589 19.826 34.542 19.932 34.542 C 20.015 34.542 20.086 34.542 20.252 34.518 C 20.538 34.481 20.632 34.072 20.678 33.732 L 21.711 27.018 L 21.711 27.013 Z M 32.28 29.952 C 32.28 28.392 32.28 28.101 32.269 27.774 C 32.246 27.422 32.149 27.314 31.819 27.218 C 31.736 27.194 31.557 27.18 31.405 27.18 C 31.296 27.18 31.225 27.143 31.225 27.07 C 31.225 26.997 31.308 26.973 31.462 26.973 C 32.008 26.973 32.672 26.997 32.875 26.997 C 33.396 26.997 34.084 26.973 34.442 26.973 C 36.329 26.973 36.661 27.965 36.661 28.51 C 36.661 29.308 36.08 29.926 35.485 30.311 C 36.34 30.589 37.41 31.326 37.41 32.536 C 37.41 33.638 36.555 34.774 34.633 34.774 C 34.513 34.774 34.158 34.763 33.801 34.739 C 33.446 34.728 33.078 34.716 32.912 34.716 C 32.794 34.716 32.568 34.728 32.319 34.728 C 32.071 34.739 31.81 34.751 31.596 34.751 C 31.465 34.751 31.393 34.713 31.393 34.641 C 31.393 34.591 31.43 34.533 31.559 34.533 C 31.713 34.533 31.833 34.521 31.928 34.495 C 32.142 34.446 32.202 34.253 32.236 33.95 C 32.285 33.515 32.285 32.705 32.285 31.761 L 32.285 29.947 Z M 33.635 30.121 C 33.635 30.206 33.67 30.217 33.707 30.232 C 33.801 30.255 33.955 30.267 34.193 30.267 C 34.536 30.267 34.833 30.232 35.011 30.086 C 35.285 29.867 35.485 29.494 35.485 28.998 C 35.485 28.308 35.082 27.45 34.181 27.45 C 34.038 27.45 33.836 27.45 33.73 27.474 C 33.658 27.486 33.635 27.535 33.635 27.643 L 33.635 30.123 Z M 33.635 33.147 C 33.635 33.826 33.67 34.03 34.002 34.164 C 34.276 34.274 34.511 34.286 34.75 34.286 C 35.308 34.286 36.032 33.971 36.032 32.834 C 36.032 32.362 35.831 31.552 35.048 31.007 C 34.833 30.849 34.55 30.739 34.147 30.739 L 33.695 30.739 C 33.658 30.739 33.635 30.751 33.635 30.812 Z M 40.391 32.167 C 40.331 32.167 40.32 32.179 40.297 32.24 L 39.739 33.619 C 39.631 33.872 39.585 34.126 39.585 34.248 C 39.585 34.429 39.679 34.54 39.999 34.54 L 40.154 34.54 C 40.285 34.54 40.308 34.589 40.308 34.648 C 40.308 34.732 40.248 34.758 40.142 34.758 C 39.799 34.758 39.313 34.72 38.981 34.72 C 38.873 34.72 38.315 34.758 37.771 34.758 C 37.64 34.758 37.582 34.735 37.582 34.648 C 37.582 34.587 37.617 34.54 37.7 34.54 C 37.797 34.54 37.914 34.528 38.009 34.528 C 38.483 34.455 38.661 34.14 38.875 33.619 L 41.606 27.147 C 41.725 26.856 41.808 26.736 41.914 26.736 C 42.069 26.736 42.117 26.835 42.223 27.063 C 42.472 27.631 44.219 31.841 44.882 33.403 C 45.285 34.335 45.583 34.467 45.772 34.504 C 45.926 34.528 46.044 34.542 46.163 34.542 C 46.258 34.542 46.306 34.58 46.306 34.65 C 46.306 34.735 46.246 34.76 45.857 34.76 C 45.488 34.76 44.73 34.76 43.85 34.737 C 43.661 34.725 43.541 34.725 43.541 34.652 C 43.541 34.591 43.564 34.556 43.672 34.544 C 43.744 34.533 43.815 34.434 43.767 34.314 L 42.96 32.245 C 42.937 32.184 42.901 32.172 42.852 32.172 L 40.396 32.172 Z M 42.622 31.599 C 42.67 31.599 42.682 31.575 42.67 31.538 L 41.686 28.923 C 41.675 28.886 41.663 28.827 41.638 28.827 C 41.601 28.827 41.589 28.888 41.578 28.923 L 40.569 31.526 C 40.546 31.575 40.569 31.599 40.606 31.599 L 42.624 31.599 Z M 47.445 29.952 C 47.445 28.392 47.445 28.101 47.433 27.774 C 47.41 27.422 47.302 27.302 47.078 27.23 C 46.958 27.192 46.829 27.18 46.698 27.18 C 46.59 27.18 46.532 27.157 46.532 27.058 C 46.532 26.997 46.615 26.973 46.781 26.973 C 47.173 26.973 47.885 26.997 48.182 26.997 C 48.442 26.997 49.12 26.973 49.523 26.973 C 49.654 26.973 49.737 26.997 49.737 27.058 C 49.737 27.154 49.677 27.18 49.571 27.18 C 49.465 27.18 49.38 27.192 49.263 27.218 C 48.977 27.267 48.894 27.41 48.871 27.774 C 48.848 28.101 48.848 28.392 48.848 29.952 L 48.848 31.765 C 48.848 32.757 48.848 33.581 48.896 34.016 C 48.933 34.293 49.002 34.45 49.311 34.5 C 49.454 34.523 49.691 34.537 49.843 34.537 C 49.963 34.537 50.009 34.598 50.009 34.645 C 50.009 34.718 49.926 34.756 49.806 34.756 C 49.117 34.756 48.405 34.718 48.122 34.718 C 47.885 34.718 47.173 34.756 46.756 34.756 C 46.624 34.756 46.553 34.718 46.553 34.645 C 46.553 34.596 46.59 34.537 46.719 34.537 C 46.873 34.537 46.993 34.526 47.087 34.5 C 47.302 34.45 47.362 34.305 47.396 34.004 C 47.445 33.581 47.445 32.759 47.445 31.765 Z M 56.005 33.776 C 54.973 32.893 54.698 31.733 54.698 30.739 C 54.698 30.037 54.924 28.827 55.92 27.92 C 56.68 27.241 57.675 26.833 59.231 26.833 C 59.883 26.833 60.275 26.882 60.749 26.941 C 61.141 27.002 61.484 27.074 61.793 27.11 C 61.913 27.121 61.947 27.171 61.947 27.232 C 61.947 27.316 61.924 27.439 61.899 27.8 C 61.876 28.139 61.876 28.707 61.862 28.914 C 61.851 29.059 61.814 29.167 61.719 29.167 C 61.636 29.167 61.611 29.083 61.611 28.949 C 61.6 28.622 61.468 28.258 61.208 27.993 C 60.851 27.641 60.152 27.389 59.189 27.389 C 58.226 27.389 57.694 27.558 57.219 27.969 C 56.447 28.648 56.258 29.64 56.258 30.643 C 56.258 33.086 58.111 34.248 59.51 34.248 C 60.436 34.248 60.945 34.176 61.362 33.703 C 61.54 33.499 61.682 33.208 61.717 33.013 C 61.74 32.855 61.765 32.808 61.848 32.808 C 61.92 32.808 61.968 32.905 61.968 32.989 C 61.968 33.111 61.848 34.004 61.742 34.356 C 61.694 34.537 61.646 34.587 61.468 34.659 C 61.053 34.829 60.258 34.89 59.581 34.89 C 58.157 34.89 56.947 34.587 55.998 33.776 Z M 64.662 32.167 C 64.602 32.167 64.59 32.179 64.567 32.24 L 64.01 33.619 C 63.901 33.872 63.855 34.126 63.855 34.248 C 63.855 34.429 63.95 34.54 64.27 34.54 L 64.425 34.54 C 64.556 34.54 64.579 34.589 64.579 34.648 C 64.579 34.732 64.519 34.758 64.413 34.758 C 64.07 34.758 63.583 34.72 63.252 34.72 C 63.143 34.72 62.586 34.758 62.042 34.758 C 61.911 34.758 61.853 34.735 61.853 34.648 C 61.853 34.587 61.888 34.54 61.971 34.54 C 62.067 34.54 62.185 34.528 62.279 34.528 C 62.754 34.455 62.931 34.14 63.146 33.619 L 65.876 27.147 C 65.996 26.856 66.079 26.736 66.185 26.736 C 66.339 26.736 66.388 26.835 66.494 27.063 C 66.743 27.631 68.489 31.841 69.153 33.403 C 69.556 34.335 69.853 34.467 70.042 34.504 C 70.197 34.528 70.314 34.542 70.434 34.542 C 70.529 34.542 70.577 34.58 70.577 34.65 C 70.577 34.735 70.517 34.76 70.128 34.76 C 69.759 34.76 69.001 34.76 68.121 34.737 C 67.932 34.725 67.812 34.725 67.812 34.652 C 67.812 34.591 67.835 34.556 67.943 34.544 C 68.015 34.533 68.086 34.434 68.038 34.314 L 67.231 32.245 C 67.208 32.184 67.171 32.172 67.123 32.172 L 64.666 32.172 Z M 66.892 31.599 C 66.941 31.599 66.952 31.575 66.941 31.538 L 65.957 28.923 C 65.945 28.886 65.934 28.827 65.908 28.827 C 65.872 28.827 65.86 28.888 65.849 28.923 L 64.839 31.526 C 64.816 31.575 64.839 31.599 64.876 31.599 L 66.895 31.599 Z" fill="rgb(255,255,255)"></path><path d="M 72.344 27.013 C 72.367 26.844 72.464 26.748 72.547 26.748 C 72.653 26.748 72.724 26.797 72.867 27.074 L 75.669 32.811 L 78.469 27.004 C 78.552 26.835 78.646 26.75 78.741 26.75 C 78.824 26.75 78.944 26.858 78.978 27.077 L 79.928 33.429 C 80.024 34.07 80.119 34.347 80.439 34.446 C 80.736 34.53 80.902 34.542 81.031 34.542 C 81.126 34.542 81.197 34.58 81.197 34.638 C 81.197 34.723 81.077 34.76 80.923 34.76 C 80.663 34.76 79.179 34.711 78.764 34.688 C 78.515 34.676 78.455 34.627 78.455 34.565 C 78.455 34.516 78.504 34.481 78.573 34.457 C 78.633 34.434 78.656 34.312 78.621 34.023 L 78.04 29.569 L 78.003 29.569 L 75.761 34.166 C 75.524 34.65 75.464 34.746 75.347 34.746 C 75.215 34.746 75.098 34.54 74.932 34.225 C 74.683 33.755 73.851 32.181 73.734 31.89 C 73.651 31.697 73.033 30.403 72.69 29.689 L 72.653 29.689 L 72.155 33.706 C 72.132 33.889 72.118 34.02 72.118 34.19 C 72.118 34.382 72.261 34.455 72.439 34.493 C 72.616 34.53 72.713 34.542 72.807 34.542 C 72.902 34.542 72.973 34.591 72.973 34.638 C 72.973 34.735 72.877 34.76 72.724 34.76 C 72.284 34.76 71.81 34.723 71.621 34.723 C 71.418 34.723 70.92 34.76 70.588 34.76 C 70.482 34.76 70.399 34.737 70.399 34.638 C 70.399 34.589 70.459 34.542 70.565 34.542 C 70.648 34.542 70.72 34.542 70.886 34.518 C 71.171 34.481 71.266 34.072 71.312 33.732 L 72.344 27.018 Z M 82.912 29.952 C 82.912 28.392 82.912 28.101 82.9 27.774 C 82.877 27.422 82.78 27.314 82.451 27.218 C 82.368 27.194 82.188 27.18 82.036 27.18 C 81.928 27.18 81.856 27.143 81.856 27.07 C 81.856 26.997 81.939 26.973 82.094 26.973 C 82.64 26.973 83.303 26.997 83.601 26.997 C 84.027 26.997 84.859 26.973 85.333 26.973 C 86.64 26.973 87.112 27.408 87.28 27.554 C 87.506 27.772 87.801 28.23 87.801 28.787 C 87.801 30.239 86.663 31.279 85.179 31.279 C 85.131 31.279 84.919 31.279 84.87 31.267 C 84.81 31.267 84.739 31.23 84.739 31.157 C 84.739 31.072 84.859 31.023 85.082 31.023 C 85.663 31.023 86.483 30.405 86.483 29.353 C 86.483 29.015 86.446 28.338 85.866 27.829 C 85.485 27.49 85.057 27.441 84.822 27.441 C 84.667 27.441 84.465 27.453 84.37 27.49 C 84.31 27.514 84.287 27.575 84.287 27.685 L 84.287 31.761 C 84.287 32.705 84.287 33.515 84.336 33.964 C 84.372 34.253 84.432 34.448 84.739 34.495 C 84.893 34.518 85.119 34.533 85.271 34.533 C 85.391 34.533 85.437 34.594 85.437 34.641 C 85.437 34.713 85.354 34.751 85.248 34.751 C 84.548 34.751 83.813 34.713 83.538 34.713 C 83.301 34.713 82.637 34.751 82.22 34.751 C 82.089 34.751 82.017 34.713 82.017 34.641 C 82.017 34.591 82.054 34.533 82.183 34.533 C 82.338 34.533 82.458 34.521 82.552 34.495 C 82.766 34.446 82.826 34.253 82.861 33.95 C 82.909 33.515 82.909 32.705 82.909 31.761 L 82.909 29.947 L 82.909 29.952 Z M 89.539 29.952 C 89.539 28.392 89.55 28.101 89.527 27.774 C 89.504 27.41 89.407 27.314 89.075 27.218 C 88.992 27.194 88.815 27.18 88.672 27.18 C 88.552 27.18 88.495 27.143 88.495 27.07 C 88.495 26.997 88.566 26.973 88.721 26.973 C 89.278 26.973 89.979 26.997 90.287 26.997 C 90.548 26.997 91.248 26.973 91.629 26.973 C 91.783 26.973 91.854 26.997 91.854 27.07 C 91.854 27.143 91.794 27.18 91.688 27.18 C 91.569 27.18 91.511 27.192 91.38 27.218 C 91.108 27.267 91.025 27.41 90.999 27.774 C 90.976 28.101 90.976 28.392 90.976 29.952 L 90.976 31.392 C 90.976 32.893 91.262 33.473 91.771 33.884 C 92.235 34.258 92.732 34.295 93.089 34.295 C 93.541 34.295 94.073 34.161 94.49 33.753 C 95.071 33.196 95.096 32.301 95.096 31.249 L 95.096 29.954 C 95.096 28.395 95.085 28.103 95.073 27.777 C 95.05 27.424 94.965 27.316 94.633 27.22 C 94.55 27.197 94.373 27.183 94.253 27.183 C 94.133 27.183 94.076 27.145 94.076 27.072 C 94.076 26.999 94.147 26.976 94.29 26.976 C 94.825 26.976 95.525 26.999 95.537 26.999 C 95.656 26.999 96.355 26.976 96.758 26.976 C 96.901 26.976 96.972 26.999 96.972 27.072 C 96.972 27.145 96.912 27.183 96.795 27.183 C 96.677 27.183 96.615 27.194 96.486 27.22 C 96.202 27.269 96.131 27.413 96.106 27.777 C 96.094 28.103 96.083 28.395 96.083 29.954 L 96.083 31.056 C 96.083 32.205 95.963 33.414 95.085 34.152 C 94.35 34.782 93.555 34.89 92.877 34.89 C 92.331 34.89 91.251 34.866 90.493 34.187 C 89.96 33.715 89.543 32.954 89.543 31.465 L 89.543 29.952 Z M 98.444 34.622 C 98.279 34.549 98.242 34.5 98.242 34.272 C 98.242 33.715 98.29 33.074 98.302 32.905 C 98.302 32.747 98.35 32.639 98.433 32.639 C 98.527 32.639 98.539 32.736 98.539 32.808 C 98.539 32.942 98.576 33.158 98.636 33.339 C 98.862 34.103 99.643 34.356 100.297 34.356 C 101.198 34.356 101.744 33.776 101.744 33.05 C 101.744 32.604 101.638 32.155 100.712 31.599 L 100.106 31.237 C 98.871 30.499 98.47 29.809 98.47 28.902 C 98.47 27.643 99.657 26.833 101.104 26.833 C 101.781 26.833 102.313 26.929 102.588 27.002 C 102.682 27.025 102.73 27.063 102.73 27.136 C 102.73 27.269 102.694 27.558 102.694 28.369 C 102.694 28.587 102.645 28.695 102.562 28.695 C 102.491 28.695 102.454 28.634 102.454 28.514 C 102.454 28.416 102.406 28.103 102.182 27.836 C 102.028 27.641 101.696 27.352 101.018 27.352 C 100.269 27.352 99.594 27.751 99.594 28.451 C 99.594 28.911 99.76 29.273 100.698 29.806 L 101.127 30.048 C 102.502 30.823 102.931 31.61 102.931 32.541 C 102.931 33.304 102.647 33.919 101.887 34.464 C 101.389 34.829 100.7 34.887 100.143 34.887 C 99.537 34.887 98.896 34.826 98.447 34.622 Z" fill="rgb(255,255,255)"></path></g></svg>