<svg xmlns="http://www.w3.org/2000/svg" xmlns:xlink="http://www.w3.org/1999/xlink" viewBox="0 0 198 76"><g id="ss12274699668_1"><path d="M 76.3 0 L 0 0 L 0 76.3 L 76.3 76.3 Z" fill="rgb(235,169,61)"></path><path d="M 55.56 33.61 C 50.42 32.24 49.22 31.72 49.22 29.67 C 49.22 28.3 50.59 27.1 52.99 27.1 C 55.56 27.1 58.13 28.13 60.71 30.02 L 64.14 25.05 C 61.05 22.65 57.45 21.28 53.17 21.28 C 47.17 21.28 42.71 24.88 42.71 30.2 C 42.71 36.03 46.65 37.74 52.66 39.29 C 57.63 40.49 58.66 41.35 58.66 43.06 C 58.66 44.77 57.12 45.8 54.37 45.8 C 50.94 45.8 48.03 44.43 45.45 42.2 C 45.45 42.2 45.28 42.2 45.28 42.03 L 44.59 41.34 L 44.25 41 C 43.74 43.06 42.71 45.12 41.51 46.83 C 41.68 47 42.02 47.17 42.2 47.52 C 45.63 50.26 49.92 51.64 54.03 51.64 C 60.37 51.64 65 48.38 65 42.38 C 65 37.41 61.57 35.18 55.57 33.63 Z" fill="rgb(255,255,255)"></path><path d="M 48.7 56.59 L 32.58 43.56 C 30.87 45.1 28.81 45.96 26.41 45.96 C 21.27 45.96 16.98 41.84 16.98 36.53 C 16.98 31.22 21.1 27.1 26.41 27.1 C 31.72 27.1 35.84 31.22 35.84 36.53 C 35.84 38.24 35.33 39.96 34.47 41.33 L 39.1 45.27 C 40.81 42.87 41.84 39.78 41.84 36.53 C 41.84 27.96 34.98 21.1 26.41 21.1 C 17.84 21.1 10.98 27.96 10.98 36.53 C 10.98 45.1 17.84 51.96 26.41 51.96 C 28.98 51.96 31.38 51.27 33.44 50.25 L 48.19 57.28 Z" fill="rgb(255,255,255)"></path><path d="M 197.93 51.61 L 178.98 51.61 L 178.98 70.56 L 197.93 70.56 Z" fill="rgb(235,169,61)"></path><path d="M 191.19 62.93 L 192.08 65.61 L 192.46 66.76 L 191.45 66.01 L 189.17 64.36 L 191.21 62.95 Z M 189.92 59.24 L 194.75 59.24 L 194.63 59.36 L 184.32 66.85 L 184.7 65.7 L 185.85 62.27 L 182.92 60.11 L 181.91 59.36 L 186.75 59.36 Z M 188.91 55.68 L 189.8 58.35 L 187.38 58.35 L 188.27 55.68 L 188.65 54.53 Z" fill="rgb(255,255,255)"></path><path d="M 177.71 51.61 L 158.76 51.61 L 158.76 70.56 L 177.71 70.56 Z" fill="rgb(235,169,61)"></path><path d="M 170.97 62.93 L 171.86 65.61 L 172.24 66.76 L 171.23 66.01 L 168.95 64.36 L 170.99 62.95 Z M 169.7 59.24 L 174.54 59.24 L 174.42 59.36 L 164.11 66.85 L 164.49 65.7 L 165.64 62.27 L 162.71 60.11 L 161.7 59.36 L 166.54 59.36 L 169.71 59.24 Z M 168.55 55.68 L 169.44 58.35 L 167.02 58.35 L 167.91 55.68 L 168.29 54.53 Z" fill="rgb(255,255,255)"></path><path d="M 157.37 51.61 L 138.42 51.61 L 138.42 70.56 L 157.37 70.56 Z" fill="rgb(235,169,61)"></path><path d="M 150.63 62.93 L 151.52 65.61 L 151.9 66.76 L 150.89 66.01 L 148.61 64.36 L 150.65 62.95 Z M 149.48 59.24 L 154.32 59.24 L 154.2 59.36 L 143.89 66.85 L 144.27 65.7 L 145.42 62.27 L 142.49 60.11 L 141.48 59.36 L 146.32 59.36 L 149.49 59.24 Z M 148.34 55.68 L 149.23 58.35 L 146.81 58.35 L 147.7 55.68 L 148.08 54.53 Z" fill="rgb(255,255,255)"></path><path d="M 137.16 51.61 L 118.21 51.61 L 118.21 70.56 L 137.16 70.56 Z" fill="rgb(235,169,61)"></path><path d="M 130.42 62.93 L 131.31 65.61 L 131.69 66.76 L 130.68 66.01 L 128.4 64.36 L 130.44 62.95 Z M 129.27 59.24 L 134.11 59.24 L 133.99 59.36 L 123.68 66.85 L 124.06 65.7 L 125.21 62.27 L 122.28 60.11 L 121.27 59.36 L 126.1 59.36 Z M 128.12 55.68 L 129.01 58.35 L 126.59 58.35 L 127.48 55.68 L 127.86 54.53 Z" fill="rgb(255,255,255)"></path><path d="M 116.96 51.61 L 98.01 51.61 L 98.01 70.56 L 116.96 70.56 Z" fill="rgb(235,169,61)"></path><path d="M 110.2 62.93 L 111.09 65.61 L 111.47 66.76 L 110.46 66.01 L 108.18 64.36 L 110.22 62.95 Z M 109.05 59.24 L 113.89 59.24 L 113.77 59.36 L 103.46 66.85 L 103.84 65.7 L 104.99 62.27 L 102.06 60.11 L 101.05 59.36 L 105.88 59.36 Z M 107.9 55.68 L 108.79 58.35 L 106.37 58.35 L 107.26 55.68 L 107.64 54.53 Z M 176.99 37.5 L 176.99 43.66 L 178.57 43.66 L 178.57 37.5 L 181.09 37.5 L 181.09 36.09 L 174.47 36.09 L 174.47 37.5 Z M 166.93 43.66 L 168.42 43.66 L 168.42 38.62 L 172.24 43.66 L 173.65 43.66 L 173.65 36.1 L 172.16 36.1 L 172.16 40.95 L 168.42 36.1 L 166.93 36.1 Z M 165.81 43.66 L 165.81 42.36 L 161.52 42.36 L 161.52 40.59 L 164.31 40.59 L 164.31 39.29 L 161.52 39.29 L 161.52 37.61 L 165.72 37.61 L 165.72 36.31 L 159.94 36.31 L 159.94 43.87 L 165.82 43.87 L 165.82 43.68 L 165.8 43.66 Z M 158.92 43.66 L 158.92 42.25 L 154.82 42.25 L 154.82 36.09 L 153.24 36.09 L 153.24 43.65 L 158.93 43.65 L 158.91 43.65 Z M 152.2 43.66 L 152.2 42.25 L 148.1 42.25 L 148.1 36.09 L 146.52 36.09 L 146.52 43.65 L 152.21 43.65 L 152.19 43.65 Z M 145.39 43.66 L 145.39 42.36 L 141.1 42.36 L 141.1 40.59 L 143.89 40.59 L 143.89 39.29 L 141.1 39.29 L 141.1 37.61 L 145.3 37.61 L 145.3 36.31 L 139.52 36.31 L 139.52 43.87 L 145.4 43.87 L 145.4 43.68 L 145.38 43.66 Z M 134.67 42.08 C 134.4 41.99 134.1 41.81 133.92 41.62 C 133.73 41.43 133.54 41.16 133.35 40.87 C 133.26 40.6 133.16 40.22 133.16 39.94 C 133.16 39.56 133.25 39.29 133.35 39.01 C 133.45 38.74 133.63 38.44 133.81 38.26 C 134 38.07 134.27 37.88 134.57 37.69 C 134.84 37.6 135.22 37.5 135.5 37.5 C 135.88 37.5 136.25 37.59 136.61 37.77 C 136.97 37.96 137.26 38.23 137.54 38.52 L 138.57 37.49 C 138.19 37.03 137.73 36.74 137.16 36.46 C 136.59 36.19 136.04 36.08 135.39 36.08 C 134.82 36.08 134.28 36.17 133.81 36.35 C 133.35 36.54 132.88 36.81 132.51 37.19 C 132.13 37.57 131.86 37.94 131.67 38.41 C 131.48 38.87 131.39 39.44 131.39 39.9 C 131.39 40.47 131.48 40.93 131.67 41.39 C 131.86 41.85 132.13 42.23 132.51 42.61 C 132.89 42.99 133.26 43.26 133.81 43.45 C 134.27 43.64 134.84 43.72 135.39 43.72 C 135.94 43.72 136.5 43.63 137.07 43.34 C 137.64 43.07 138.1 42.77 138.48 42.31 L 137.45 41.28 C 137.18 41.55 136.88 41.85 136.52 42.03 C 136.16 42.22 135.77 42.3 135.41 42.3 C 135.32 42.21 134.95 42.21 134.66 42.03 M 128.23 41.14 L 130.19 43.85 L 132.06 43.85 L 129.16 39.94 L 131.87 36.3 L 130.1 36.3 L 128.33 38.72 L 126.56 36.3 L 124.69 36.3 L 127.4 39.94 L 124.5 43.85 L 126.27 43.85 L 128.22 41.14 Z M 124.02 43.66 L 124.02 42.36 L 119.73 42.36 L 119.73 40.59 L 122.52 40.59 L 122.52 39.29 L 119.73 39.29 L 119.73 37.61 L 123.93 37.61 L 123.93 36.31 L 118.15 36.31 L 118.15 43.87 L 124.03 43.87 L 124.03 43.68 L 124.01 43.66 Z M 141.94 9.77 L 134.69 9.77 L 134.09 13.59 L 135.5 13.59 C 137.11 13.59 138.72 13.98 139.92 14.79 C 141.33 15.6 142.34 17.21 142.34 19.42 C 142.34 23.04 139.32 25.87 134.88 25.87 C 132.67 25.87 130.85 25.27 129.84 24.86 L 130.65 22.24 C 131.46 22.63 133.07 23.25 134.68 23.25 C 136.69 23.25 138.71 22.05 138.71 19.82 C 138.71 17.59 137.1 16.2 133.48 16.2 C 132.47 16.2 131.66 16.2 130.86 16.41 L 132.06 6.94 L 141.73 6.94 L 141.73 9.75 L 141.94 9.75 L 141.96 9.77 Z M 143.97 26.49 L 153.04 5.74 L 154.45 5.74 L 145.19 26.49 Z M 165.91 7.96 L 158.86 7.96 L 157.85 14 C 158.24 14 158.66 13.79 159.67 13.79 C 160.87 13.79 162.09 14 163.1 14.6 C 164.51 15.41 165.91 17.02 165.91 19.44 C 165.91 23.26 163.1 25.68 159.67 25.68 C 157.66 25.68 156.24 25.08 155.43 24.48 L 156.03 23.47 C 156.84 23.86 158.24 24.67 159.85 24.67 C 162.47 24.67 164.69 22.66 164.69 19.83 C 164.69 17.21 163.08 15.2 159.25 15.2 C 158.05 15.2 157.24 15.2 156.63 15.41 L 157.83 6.96 L 165.89 6.96 L 165.89 7.97 L 165.91 7.97 Z" fill="rgb(255,255,255)"></path></g></svg>