<svg xmlns="http://www.w3.org/2000/svg" width="198" height="77" fill="none"><g clip-path="url(#a)"><path fill="#EBA93D" d="M76.376 0H.071v76.305h76.305V0Z"/><path fill="#fff" d="M55.628 33.609c-5.144-1.372-6.344-1.887-6.344-3.944 0-1.372 1.371-2.572 3.772-2.572 2.572 0 5.144 1.029 7.716 2.915l3.43-4.973c-3.087-2.4-6.688-3.772-10.975-3.772-6.001 0-10.46 3.6-10.46 8.916 0 5.83 3.944 7.545 9.946 9.088 4.973 1.2 6.002 2.058 6.002 3.773 0 1.714-1.544 2.743-4.287 2.743-3.43 0-6.345-1.372-8.917-3.6 0 0-.171 0-.171-.172l-.686-.686-.343-.343c-.514 2.058-1.543 4.115-2.744 5.83.172.171.515.343.686.686 3.43 2.743 7.716 4.115 11.832 4.115 6.344 0 10.974-3.258 10.974-9.26 0-4.972-3.43-7.201-9.431-8.744Z"/><path fill="#fff" d="M48.77 56.585 32.653 43.553c-1.715 1.544-3.772 2.401-6.173 2.401-5.144 0-9.43-4.115-9.43-9.43 0-5.317 4.115-9.432 9.43-9.432 5.316 0 9.431 4.116 9.431 9.431 0 1.715-.514 3.43-1.372 4.801l4.63 3.944c1.715-2.4 2.744-5.487 2.744-8.745A15.368 15.368 0 0 0 26.48 21.091a15.368 15.368 0 0 0-15.432 15.432A15.368 15.368 0 0 0 26.48 51.955c2.572 0 4.973-.685 7.03-1.714l14.747 7.03.514-.686Z"/><path fill="#EBA93D" d="M197.998 51.613H179.05v18.948h18.948V51.613Z"/><path fill="#fff" d="m191.259 62.931.892 2.675.377 1.149-1.012-.755-2.28-1.646 2.04-1.406-.017-.017Zm-1.269-3.687h4.835l-.12.12-10.305 7.494.377-1.15 1.149-3.429-2.932-2.16-1.012-.755h4.836l3.172-.12Zm-1.012-3.566.892 2.675h-2.418l.892-2.675.377-1.15.257 1.15Z"/><path fill="#EBA93D" d="M177.781 51.613h-18.948v18.948h18.948V51.613Z"/><path fill="#fff" d="m171.042 62.931.892 2.675.377 1.149-1.012-.755-2.28-1.646 2.04-1.406-.017-.017Zm-1.269-3.687h4.836l-.121.12-10.305 7.494.377-1.15 1.149-3.429-2.932-2.16-1.012-.755h4.836l3.172-.12Zm-1.149-3.566.892 2.675h-2.418l.892-2.675.377-1.15.257 1.15Z"/><path fill="#EBA93D" d="M157.446 51.613h-18.947v18.948h18.947V51.613Z"/><path fill="#fff" d="m150.705 62.931.892 2.675.377 1.149-1.012-.755-2.28-1.646 2.04-1.406-.017-.017Zm-1.149-3.687h4.836l-.12.12-10.306 7.494.377-1.15 1.149-3.429-2.932-2.16-1.012-.755h4.836l3.172-.12Zm-1.149-3.566.892 2.675h-2.418l.892-2.675.377-1.15.257 1.15Z"/><path fill="#EBA93D" d="M137.229 51.613h-18.947v18.948h18.947V51.613Z"/><path fill="#fff" d="m130.489 62.931.892 2.675.377 1.149-1.011-.755-2.281-1.646 2.04-1.406-.017-.017Zm-1.149-3.687h4.836l-.12.12-10.306 7.494.378-1.15 1.149-3.429-2.933-2.16-1.011-.755h4.835l3.172-.12Zm-1.148-3.566.891 2.675h-2.418l.892-2.675.377-1.15.258 1.15Z"/><path fill="#EBA93D" d="M117.03 51.613H98.082v18.948h18.948V51.613Z"/><path fill="#fff" d="m110.272 62.931.892 2.675.377 1.149L110.53 66l-2.281-1.646 2.04-1.406-.017-.017Zm-1.149-3.687h4.836l-.12.12-10.305 7.494.377-1.15 1.149-3.429-2.933-2.16-1.011-.755h4.835l3.172-.12Zm-1.148-3.566.891 2.675h-2.417l.891-2.675.377-1.15.258 1.15Zm69.089-18.176v6.156h1.577v-6.156h2.521v-1.406h-6.619v1.406h2.521Zm-10.066 6.156h1.492v-5.041l3.824 5.04h1.406v-7.561h-1.492v4.853l-3.738-4.853h-1.492v7.562Zm-1.114 0v-1.303h-4.287v-1.766h2.795v-1.304h-2.795v-1.68h4.201v-1.303h-5.779v7.562h5.882v-.189l-.017-.017Zm-6.893 0v-1.406h-4.099v-6.156h-1.577v7.562h5.693-.017Zm-6.722 0v-1.406h-4.098v-6.156h-1.578v7.562h5.693-.017Zm-6.808 0v-1.303h-4.286v-1.766h2.795v-1.304h-2.795v-1.68h4.201v-1.303h-5.779v7.562h5.882v-.189l-.018-.017Zm-10.716-1.578a1.996 1.996 0 0 1-.755-.463c-.189-.188-.377-.463-.566-.754-.086-.274-.188-.652-.188-.926 0-.377.085-.652.188-.926s.275-.566.463-.755c.189-.188.463-.377.755-.565.274-.086.651-.189.926-.189.377 0 .754.086 1.114.274.36.189.652.463.926.755l1.029-1.029c-.377-.463-.84-.755-1.406-1.029-.566-.274-1.115-.377-1.766-.377-.566 0-1.115.086-1.578.274a3.944 3.944 0 0 0-1.303.84c-.377.378-.652.755-.84 1.218a4.16 4.16 0 0 0-.275 1.492c0 .566.086 1.029.275 1.491.188.463.463.84.84 1.218.377.377.754.652 1.303.84.463.189 1.029.274 1.578.274.548 0 1.114-.085 1.68-.377.566-.274 1.029-.566 1.406-1.029l-1.029-1.028c-.274.274-.565.566-.926.754-.36.189-.754.274-1.114.274-.086-.085-.463-.085-.755-.274m-6.43-.926 1.955 2.71h1.869l-2.898-3.91 2.709-3.635h-1.766l-1.766 2.417-1.766-2.417h-1.869l2.709 3.635-2.898 3.91h1.766l1.955-2.71Zm-4.201 2.52v-1.302h-4.287v-1.766h2.795v-1.304h-2.795v-1.68h4.201v-1.303h-5.778v7.562h5.881v-.189l-.017-.017Zm17.918-33.883h-7.253l-.601 3.824h1.406c1.612 0 3.224.395 4.424 1.2 1.406.806 2.418 2.418 2.418 4.63 0 3.618-3.018 6.448-7.459 6.448-2.212 0-4.029-.6-5.041-1.012l.806-2.624c.806.395 2.418 1.012 4.029 1.012 2.007 0 4.03-1.2 4.03-3.43 0-2.229-1.612-3.617-5.23-3.617-1.012 0-1.818 0-2.623.205l1.2-9.465h9.671v2.812h.206l.017.017Zm2.024 16.719 9.07-20.748h1.406l-9.259 20.748h-1.217Zm21.948-18.536h-7.048l-1.011 6.036c.394 0 .806-.206 1.817-.206 1.201 0 2.418.206 3.43.806 1.406.806 2.812 2.418 2.812 4.835 0 3.824-2.812 6.242-6.242 6.242-2.006 0-3.429-.6-4.235-1.2l.6-1.012c.806.394 2.212 1.2 3.824 1.2 2.623 0 4.835-2.006 4.835-4.835 0-2.624-1.611-4.63-5.435-4.63-1.2 0-2.006 0-2.624.206l1.201-8.454h8.059v1.012h.017Z"/></g><defs><clipPath id="a"><path fill="#fff" d="M.07 0H198v76.305H.07z"/></clipPath></defs></svg>