<svg xmlns="http://www.w3.org/2000/svg" xmlns:xlink="http://www.w3.org/1999/xlink" viewBox="0 0 158 52"><g id="ss12371944138_1"><g id="ss12371944138_2"><path d="M 44.61 50.11 C 23.08 50.11 5.53 39.29 5.53 26 C 5.58 22.701 6.626 19.494 8.53 16.8 C 11.19 16.89 16.62 17.55 17.18 19.96 L 21.39 38.2 L 24.39 38.2 L 29 22 L 34.21 38.21 L 37.21 38.21 L 40.76 20.31 C 41.22 18.12 41.76 17.1 43.37 16.86 C 44.48 17.03 45.13 17.61 45.13 19.53 L 45.13 34.82 C 45.13 37.32 44.03 37.56 42.23 37.56 L 42.23 38.22 L 57.83 38.22 L 58 34.6 L 59.72 38.19 C 61.482 38.438 63.26 38.561 65.04 38.56 C 69.62 38.56 73.29 36.56 73.29 32.31 C 73.29 29.14 71.52 27.77 68.88 26.23 C 65.98 24.53 61.61 23.56 61.61 20.58 C 61.61 18.38 63.61 16.94 65.82 16.94 C 69.4 16.94 71.64 19.02 71.94 20.79 L 72.77 20.79 L 72 16.21 C 70.181 15.833 68.328 15.642 66.47 15.64 C 62.26 15.64 58.95 17.28 58.95 21.29 C 58.95 23.42 60.04 24.63 61.51 25.76 C 64.62 28.14 70.16 29.24 70.16 32.85 C 70.16 35.15 68.26 37.05 65.32 37.05 C 62.38 37.05 58.74 35.6 58.47 33.81 L 57.23 33.81 C 56.73 36.12 55.69 36.92 53.12 36.92 L 49.91 36.92 C 48.24 36.92 48.08 36.72 48.08 34.11 L 48.08 27.23 L 52.39 27.23 C 54.63 27.23 55.39 28.17 55.39 30.04 L 56.09 30.04 L 56.09 23.13 L 55.39 23.13 C 55.39 25.43 54.59 25.93 52.39 25.93 L 48.08 25.93 L 48.08 20.08 C 48.08 17.65 48.18 17.28 49.91 17.28 L 52.85 17.28 C 55.23 17.28 56.33 18.01 56.73 20.05 L 57.56 20.05 L 57.33 16 L 36.09 16 L 36.09 16.83 C 37.92 16.83 38.83 17.06 38.83 18.7 C 38.799 19.22 38.719 19.735 38.59 20.24 L 36 34 L 35.93 34 L 29.93 16 L 28.84 16 L 23.73 34 L 23.66 34 L 20.39 19.58 C 20.272 19.122 20.205 18.653 20.19 18.18 C 20.19 17.31 20.83 16.81 23.19 16.81 L 23.19 16 L 9.1 16 C 15.3 7.72 28.89 2 44.61 2 C 66.13 1.93 83.68 12.75 83.68 26 C 83.68 39.25 66.13 50.11 44.61 50.11 M 44.61 0 C 20 0 0 11.69 0 26 C 0 40.31 20 52 44.61 52 C 69.22 52 89.21 40.31 89.21 26 C 89.21 11.69 69.21 0 44.61 0" fill="rgb(32,144,85)"></path><path d="M 81.35 5 C 81.389 5.308 81.191 5.596 80.89 5.67 L 81.45 6.44 L 81 6.44 L 80.49 5.73 L 80 5.73 L 80 6.44 L 79.64 6.44 L 79.64 4.3 L 80.43 4.3 C 80.676 4.28 80.921 4.339 81.13 4.47 C 81.286 4.6 81.368 4.798 81.35 5 Z M 80.87 5.31 C 80.955 5.229 81.002 5.117 81 5 C 81.011 4.891 80.97 4.784 80.89 4.71 C 80.762 4.651 80.62 4.627 80.48 4.64 L 80 4.64 L 80 5.4 L 80.45 5.4 C 80.597 5.414 80.745 5.379 80.87 5.3 Z" fill="rgb(32,144,85)"></path><path d="M 80.48 7.39 C 79.375 7.39 78.48 6.495 78.48 5.39 C 78.48 4.285 79.375 3.39 80.48 3.39 C 81.585 3.39 82.48 4.285 82.48 5.39 C 82.48 6.495 81.585 7.39 80.48 7.39 Z M 80.48 3.74 C 79.563 3.74 78.82 4.483 78.82 5.4 C 78.82 6.317 79.563 7.06 80.48 7.06 C 81.397 7.06 82.14 6.317 82.14 5.4 C 82.14 4.483 81.397 3.74 80.48 3.74 Z" fill="rgb(32,144,85)"></path><path d="M 101.9 11.76 L 104.36 11.76 L 104.36 15.83 C 103.77 16.246 103.114 16.561 102.42 16.76 C 101.706 16.974 100.965 17.082 100.22 17.08 C 99.254 17.098 98.298 16.874 97.44 16.43 C 96.639 16.013 95.968 15.383 95.5 14.61 C 94.567 12.974 94.567 10.966 95.5 9.33 C 95.978 8.544 96.672 7.912 97.5 7.51 C 98.371 7.06 99.34 6.834 100.32 6.85 C 101.167 6.838 102.007 6.998 102.79 7.32 C 103.497 7.612 104.124 8.067 104.62 8.65 L 102.85 10.25 C 102.253 9.553 101.378 9.154 100.46 9.16 C 99.687 9.092 98.924 9.369 98.374 9.917 C 97.825 10.465 97.545 11.227 97.61 12 C 97.62 12.498 97.754 12.986 98 13.42 C 98.231 13.842 98.578 14.189 99 14.42 C 99.44 14.665 99.937 14.789 100.44 14.78 C 100.96 14.782 101.475 14.673 101.95 14.46 Z M 106.55 7.05 L 109.33 7.05 L 109.33 14.68 L 114 14.68 L 114 16.89 L 106.53 16.89 Z M 117.54 16.42 C 116.317 15.765 115.413 14.64 115.036 13.305 C 114.659 11.97 114.841 10.538 115.54 9.34 C 116.022 8.557 116.716 7.927 117.54 7.52 C 119.303 6.627 121.387 6.627 123.15 7.52 C 123.956 7.934 124.631 8.564 125.1 9.34 C 125.576 10.134 125.821 11.045 125.81 11.97 C 125.843 13.839 124.811 15.564 123.15 16.42 C 121.384 17.3 119.306 17.3 117.54 16.42 Z M 121.69 14.42 C 122.109 14.185 122.455 13.839 122.69 13.42 C 123.157 12.496 123.157 11.404 122.69 10.48 C 122.461 10.056 122.114 9.709 121.69 9.48 C 120.854 9.013 119.836 9.013 119 9.48 C 118.574 9.706 118.226 10.054 118 10.48 C 117.533 11.404 117.533 12.496 118 13.42 C 118.232 13.841 118.579 14.188 119 14.42 C 119.836 14.887 120.854 14.887 121.69 14.42 Z M 136.57 12.68 C 136.896 13.115 137.065 13.647 137.05 14.19 C 137.093 14.986 136.713 15.746 136.05 16.19 C 135.142 16.717 134.098 16.964 133.05 16.9 L 127.74 16.9 L 127.74 7.05 L 132.74 7.05 C 133.746 6.983 134.748 7.227 135.61 7.75 C 136.243 8.16 136.621 8.866 136.61 9.62 C 136.619 10.064 136.501 10.501 136.27 10.88 C 136.024 11.259 135.678 11.564 135.27 11.76 C 135.784 11.933 136.236 12.253 136.57 12.68 Z M 130.45 9.06 L 130.45 11 L 132.36 11 C 133.29 11 133.76 10.68 133.76 10 C 133.76 9.32 133.29 9.06 132.36 9.06 Z M 134.24 13.88 C 134.24 13.22 133.75 12.88 132.78 12.88 L 130.45 12.88 L 130.45 14.88 L 132.78 14.88 C 133.75 14.88 134.24 14.54 134.24 13.88 Z M 145.51 15 L 141.35 15 L 140.58 16.91 L 137.74 16.91 L 142.08 7.07 L 144.82 7.07 L 149.18 16.91 L 146.28 16.91 Z M 144.69 12.94 L 143.43 9.8 L 142.16 12.94 Z M 150.38 7.05 L 153.17 7.05 L 153.17 14.68 L 157.86 14.68 L 157.86 16.89 L 150.38 16.89 Z M 97.92 23.31 L 94.92 23.31 L 94.92 21.1 L 103.73 21.1 L 103.73 23.31 L 100.73 23.31 L 100.73 30.94 L 97.92 30.94 Z M 110.57 29 L 106.41 29 L 105.63 30.91 L 102.8 30.91 L 107.14 21.07 L 109.88 21.07 L 114.23 30.91 L 111.34 30.91 Z M 109.75 27 L 108.49 23.86 L 107.22 27 Z M 115.3 21.1 L 118.08 21.1 L 118.08 28.73 L 122.78 28.73 L 122.78 30.94 L 115.3 30.94 Z M 132.05 28.79 L 132.05 30.94 L 124.15 30.94 L 124.15 21.1 L 131.87 21.1 L 131.87 23.25 L 126.87 23.25 L 126.87 24.91 L 131.24 24.91 L 131.24 27 L 126.87 27 L 126.87 28.8 Z M 143.23 21.1 L 143.23 30.94 L 140.94 30.94 L 136.6 25.7 L 136.6 30.94 L 133.87 30.94 L 133.87 21.1 L 136.17 21.1 L 140.51 26.34 L 140.51 21.1 Z M 147.57 23.31 L 144.57 23.31 L 144.57 21.1 L 153.38 21.1 L 153.38 23.31 L 150.38 23.31 L 150.38 30.94 L 147.59 30.94 Z M 104.71 40.78 C 105.032 41.216 105.198 41.748 105.18 42.29 C 105.223 43.086 104.843 43.846 104.18 44.29 C 103.269 44.809 102.227 45.052 101.18 44.99 L 95.83 44.99 L 95.83 35.15 L 100.83 35.15 C 101.833 35.083 102.832 35.327 103.69 35.85 C 104.326 36.257 104.705 36.965 104.69 37.72 C 104.695 38.165 104.574 38.602 104.34 38.98 C 104.095 39.36 103.749 39.665 103.34 39.86 C 103.88 40.02 104.357 40.341 104.71 40.78 Z M 98.58 37.16 L 98.58 39.06 L 100.49 39.06 C 101.43 39.06 101.9 38.727 101.9 38.06 C 101.9 37.44 101.43 37.12 100.49 37.12 Z M 102.37 42 C 102.37 41.34 101.89 41 100.91 41 L 98.58 41 L 98.58 43 L 100.91 43 C 101.89 43 102.37 42.65 102.37 42 Z M 111.35 42.37 L 109.84 42.37 L 109.84 45 L 107.05 45 L 107.05 35.15 L 111.55 35.15 C 112.346 35.134 113.136 35.284 113.87 35.59 C 115.135 36.14 115.93 37.412 115.87 38.79 C 115.883 39.445 115.71 40.09 115.37 40.65 C 115.039 41.187 114.565 41.62 114 41.9 L 116.12 45 L 113.12 45 Z M 112.67 37.72 C 112.299 37.443 111.842 37.308 111.38 37.34 L 109.84 37.34 L 109.84 40.22 L 111.38 40.22 C 111.84 40.255 112.298 40.124 112.67 39.85 C 112.971 39.582 113.133 39.192 113.11 38.79 C 113.13 38.386 112.969 37.993 112.67 37.72 Z M 118.15 35.15 L 120.94 35.15 L 120.94 45 L 118.15 45 Z M 123.62 35.15 L 128.27 35.15 C 129.261 35.13 130.243 35.339 131.14 35.76 C 131.935 36.131 132.606 36.725 133.07 37.47 C 133.991 39.081 133.991 41.059 133.07 42.67 C 132.606 43.415 131.935 44.009 131.14 44.38 C 130.243 44.801 129.261 45.01 128.27 44.99 L 123.62 44.99 Z M 128.16 42.77 C 128.895 42.797 129.611 42.539 130.16 42.05 C 131.179 40.911 131.179 39.189 130.16 38.05 C 129.611 37.561 128.895 37.303 128.16 37.33 L 126.4 37.33 L 126.4 42.73 Z M 142 39.86 L 144.46 39.86 L 144.46 43.93 C 143.873 44.352 143.217 44.667 142.52 44.86 C 141.81 45.074 141.072 45.182 140.33 45.18 C 139.364 45.199 138.408 44.975 137.55 44.53 C 136.747 44.116 136.075 43.485 135.61 42.71 C 134.677 41.074 134.677 39.066 135.61 37.43 C 136.076 36.652 136.752 36.021 137.56 35.61 C 138.436 35.165 139.408 34.942 140.39 34.96 C 141.236 34.945 142.076 35.101 142.86 35.42 C 143.567 35.712 144.194 36.167 144.69 36.75 L 142.92 38.36 C 142.324 37.66 141.45 37.258 140.53 37.26 C 139.787 37.24 139.068 37.517 138.53 38.03 C 138.014 38.566 137.737 39.287 137.76 40.03 C 137.753 40.535 137.873 41.034 138.11 41.48 C 138.339 41.903 138.687 42.251 139.11 42.48 C 139.554 42.724 140.054 42.848 140.56 42.84 C 141.077 42.842 141.589 42.733 142.06 42.52 Z M 154.78 42.84 L 154.78 45 L 146.89 45 L 146.89 35.15 L 154.6 35.15 L 154.6 37.3 L 149.6 37.3 L 149.6 39 L 154 39 L 154 41 L 149.63 41 L 149.63 42.8 Z" fill="rgb(30,144,85)"></path></g></g></svg>